<?xml version="1.0" encoding="iso-8859-1"?>
<svg xmlns="http://www.w3.org/2000/svg" xmlns:xlink="http://www.w3.org/1999/xlink" version="1.1" id="Capa_1" x="0px" y="0px" viewBox="0 0 96.257 96.257" style="enable-background:new 0 0 96.257 96.257;" xml:space="preserve" width="36px" height="36px">
<g>
	<g>
		<g>
			<polygon points="25.052,69.863 17.894,77.02 53.683,77.02 46.525,69.863    " fill="#00a6d6"/>
		</g>
		<g>
			<path d="M94.467,48.279H81.941c-0.984,0-1.789-0.805-1.789-1.789v-1.678c0-0.984-0.809-1.789-1.789-1.789     H65.837c-0.984,0-1.789,0.805-1.789,1.789v9.216h-3.579v-9.216c0-2.96,2.409-5.368,5.368-5.368h5.74V19.236H0v46.525h60.468     v-5.672h3.579v7.984c0,0.981,0.805,1.789,1.789,1.789h28.631c0.981,0,1.789-0.809,1.789-1.789V50.068     C96.257,49.084,95.452,48.279,94.467,48.279z M69.322,64.455l1.693-5.268H50.039c-1.181,0-2.137-0.959-2.137-2.137     s0.959-2.14,2.137-2.14h20.976l-1.693-5.264l10.525,7.401L69.322,64.455z" fill="#00a6d6"/>
		</g>
	</g>
</g>
</svg>
