<?xml version="1.0" encoding="UTF-8" standalone="no"?>
<svg
   xmlns:svg="http://www.w3.org/2000/svg"
   xmlns="http://www.w3.org/2000/svg"
   xmlns:xlink="http://www.w3.org/1999/xlink"
   version="1.1"
   width="600"
   height="600"
   viewBox="-300 -300 600 600">
<defs>
 <circle id="c" cx="0" cy="0" r="5" style="fill:#eee;stroke:#FFF;stroke-width:2px;stroke-opacity:0.7" />
</defs>
<path style="fill:none;stroke:#FFF;stroke-width:1px;"
d="
M 228.25 -74.16
L -88.35 223.15
L 217.16 102.19
L 30.08 238.11
L -184.92 152.98
L 141.07 194.16
L -30.08 238.11
L -164.29 -174.95
L -239.53 -15.07
L 0 -240
L 88.35 223.15
L 228.25 -74.16
L -239.53 -15.07
M 164.29 -174.95
L -115.62 -210.31
L 30.08 238.11
L 228.25 -74.16
L -217.16 102.19
L -202.64 -128.6
L 239.53 -15.07
L 141.07 194.16
L 235.75 44.97
L 164.29 -174.95
L 0 -240
L 202.64 -128.6
L -228.25 -74.16
L 228.25 -74.16
L 184.92 152.98
L 235.75 44.97
L 0 -240
L 217.16 102.19
L 59.69 -232.46
L 115.62 -210.31
L -30.08 238.11
M 164.29 -174.95
L 59.69 -232.46
L 202.64 -128.6
M 115.62 -210.31
L 0 -240
L 59.69 -232.46
L 228.25 -74.16
L 0 -240
L 239.53 -15.07
L 59.69 -232.46
M 115.62 -210.31
L -59.69 -232.46
L 0 -240
L -141.07 194.16
L -235.75 44.97
L -184.92 152.98
M -141.07 194.16
L 217.16 102.19
M 0 -240
L -217.16 102.19
" />

<use xlink:href="#c" transform="translate(-59.69 -232.46)" />
<use xlink:href="#c" transform="translate(-115.62 -210.31)" />
<use xlink:href="#c" transform="translate(-164.29 -174.95)" />
<use xlink:href="#c" transform="translate(-202.64 -128.6)" />
<use xlink:href="#c" transform="translate(-228.25 -74.16)" />
<use xlink:href="#c" transform="translate(-239.53 -15.07)" />
<use xlink:href="#c" transform="translate(-235.75 44.97)" />
<use xlink:href="#c" transform="translate(-217.16 102.19)" />
<use xlink:href="#c" transform="translate(-184.92 152.98)" />
<use xlink:href="#c" transform="translate(-141.07 194.16)" />
<use xlink:href="#c" transform="translate(-88.35 223.15)" />
<use xlink:href="#c" transform="translate(-30.08 238.11)" />
<use xlink:href="#c" transform="translate(30.08 238.11)" />
<use xlink:href="#c" transform="translate(88.35 223.15)" />
<use xlink:href="#c" transform="translate(141.07 194.16)" />
<use xlink:href="#c" transform="translate(184.92 152.98)" />
<use xlink:href="#c" transform="translate(217.16 102.19)" />
<use xlink:href="#c" transform="translate(235.75 44.97)" />
<use xlink:href="#c" transform="translate(239.53 -15.07)" />
<use xlink:href="#c" transform="translate(228.25 -74.16)" />
<use xlink:href="#c" transform="translate(202.64 -128.6)" />
<use xlink:href="#c" transform="translate(164.29 -174.95)" />
<use xlink:href="#c" transform="translate(115.62 -210.31)" />
<use xlink:href="#c" transform="translate(59.69 -232.46)" />
<use xlink:href="#c" transform="translate(0 -240)" />
</svg>
